<?xml version="1.0" encoding="utf-8"?>
<!-- Generator: Adobe Illustrator 24.0.2, SVG Export Plug-In . SVG Version: 6.00 Build 0)  -->
<svg version="1.1" id="Layer_1" xmlns="http://www.w3.org/2000/svg" xmlns:xlink="http://www.w3.org/1999/xlink" x="0px" y="0px"
	 width="284px" height="40px" viewBox="0 0 284 40" style="enable-background:new 0 0 284 40;" xml:space="preserve">
<style type="text/css">
	.st0{fill:#007FC7;}
	.st1{fill:#94BDE5;}
</style>
<title>smiths-logo</title>
<desc>Created with Sketch.</desc>
<g id="smiths-logo">
	<g transform="translate(110.000000, 53.000000)">
		<path id="Shape" class="st0" d="M-44-43v18.1h3.1v-11c0.6-0.4,1.7-0.8,3-0.8c0.3,0,1,0,1.4,0c2.2,0,3.2,1,3.2,3.2v8.6h3.1v-8.9
			c0-3.8-1.6-5.3-5.4-5.4c-0.8,0-1.3,0-2.1,0c-1.2,0-2.3,0.2-3.3,0.8V-43H-44z"/>
		<path id="Shape_1_" class="st0" d="M-47.2-27.4c-0.6,0.1-1.3,0.1-1.8,0.1c-2.3,0-3-0.6-3-3.1v-6.4h4.2v-2.3H-52V-43h-3.1v3.8h-3.3
			v2.3h3.3v5.9c0,4.5,1.5,6.1,5.7,6.1c0.6,0,1.5,0,2.2-0.1V-27.4z"/>
		<path id="Shape_2_" class="st0" d="M-80.8-38c-0.8-0.7-2.1-1.1-3.9-1.2c-0.6,0-1.1,0-2.1,0c-2,0.1-4,0.6-5.5,1.5V-25h3.1v-11.1
			c0.7-0.4,1.8-0.6,2.5-0.6c0.7,0,1.1,0,1.7,0c1.7,0.1,2.6,0.8,2.6,2.6v9.3h3.1v-9.1c0-0.8-0.1-1.4-0.3-1.9c0.6-0.5,1.8-0.8,2.7-0.8
			c0.7,0,1.1,0,1.7,0c1.7,0.1,2.6,0.8,2.6,2.6v9.3h3.1V-34c0-3.7-1.4-5.1-5.4-5.2c-0.7,0-0.9,0-2,0C-78.3-39.1-79.8-38.7-80.8-38"/>
		<path id="Shape_3_" class="st0" d="M-101.6-31c2.5,0.3,3.3,0.3,3.3,1.9c0,1.4-0.2,1.8-2.3,1.8h-8.6v2.4h8.3c3.9,0,5.6-1,5.7-3.6
			V-30c-0.1-2.3-1.5-2.9-4.6-3.3l-3.3-0.4c-2.4-0.3-3.3-0.2-3.3-1.7c0-1,0.4-1.4,2-1.4h8v-2.3h-7.8c-3.5,0-5.3,0.9-5.3,3.5v0.9
			c0.1,2.3,1.4,3,4.6,3.4L-101.6-31z"/>
		<path id="Shape_4_" class="st0" d="M-19.2-31c2.4,0.3,3.3,0.3,3.3,1.9c0,1.4-0.2,1.8-2.3,1.8h-8.5v2.4h8.2c3.9,0,5.6-1,5.7-3.6
			c0-0.3,0-1.1,0-1.5c-0.1-2.3-1.5-2.9-4.6-3.3l-3.3-0.4c-2.4-0.3-3.2-0.2-3.2-1.7c0-1,0.4-1.4,2-1.4h7.9v-2.3h-7.7
			c-3.5,0-5.3,0.9-5.3,3.5v0.9c0.1,2.3,1.4,3,4.6,3.4L-19.2-31z"/>
		<path id="Shape_5_" class="st0" d="M-65.3-39.1v8.2c0,3.8,0.9,6.1,5.6,6.1c0.5,0,1.1,0,1.5-0.1v-2.5c-0.3,0-0.6,0-0.9,0
			c-2.5,0-3-0.8-3-3.1v-8.6H-65.3z"/>
		<path id="Shape_6_" class="st1" d="M34.6-28.5c0.1,2.6,1.8,3.6,5.7,3.6h8v-2.4H40c-2,0-2.3-0.5-2.3-1.8c0-1.6,0.9-1.4,3.3-1.7
			l3.3-0.4c3.2-0.4,4.5-1.1,4.6-3.4v-1c0-2.6-1.8-3.5-5.3-3.5h-3.7c-3.5,0-5.3,0.9-5.3,3.5V-28.5z M39.7-36.7h4.1c1.6,0,2,0.4,2,1.4
			c0,1.5-0.8,1.6-3.2,1.9L39.3-33c-0.5,0.1-1.1,0.1-1.5,0.4v-2.8C37.7-36.3,38.1-36.7,39.7-36.7z"/>
		<path id="Shape_7_" class="st1" d="M131-28.5c0.1,2.6,1.8,3.6,5.7,3.6h8v-2.4h-8.3c-2.1,0-2.3-0.5-2.3-1.8c0-1.6,0.9-1.4,3.3-1.7
			l3.3-0.4c3.2-0.4,4.5-1.1,4.6-3.4c0-0.4,0-0.8,0-1.1c0-2.6-1.8-3.5-5.3-3.5h-3.7c-3.5,0-5.3,0.9-5.3,3.5V-28.5z M136-36.7h4.1
			c1.6,0,2,0.4,2,1.4c0,1.5-0.8,1.6-3.2,1.9l-3.2,0.4c-0.5,0.1-1.2,0.1-1.5,0.4v-2.8C134.1-36.3,134.5-36.7,136-36.7z"/>
		<path id="Shape_8_" class="st1" d="M58.4-36.7c1.6,0,2.9,0.5,3.5,1l2.1-2c-0.4-0.4-2.6-1.4-4.8-1.4h-1.6c-1.1,0-3.8,0.3-5.7,1.5
			v12.8H55v-11c0.6-0.4,1.8-0.9,3-0.9H58.4z"/>
		<path id="Shape_9_" class="st1" d="M32.1-27.4c-0.6,0.1-1.3,0.1-1.8,0.1c-2.3,0-3-0.6-3-3.1v-6.3h4.2v-2.4h-4.2V-43h-3.1v3.8h-3.3
			v2.4h3.3v5.8c0,4.5,1.6,6.1,5.7,6.1c0.6,0,1.5,0,2.2-0.1V-27.4z"/>
		<path id="Shape_10_" class="st1" d="M173.9-27.4c-0.6,0.1-1.3,0.1-1.8,0.1c-2.3,0-3-0.6-3-3.1v-6.3h4.2v-2.4h-4.2V-43H166v3.8
			h-3.3v2.4h3.3v5.8c0,4.5,1.5,6.1,5.7,6.1c0.6,0,1.5,0,2.2-0.1V-27.4z"/>
		<path id="Shape_11_" class="st1" d="M74.5-27.3c1.3-0.1,2.5-0.3,3.1-0.8l1,2.3c-0.7,0.6-2.1,0.9-4.1,0.9h-4.2
			c-3.8-0.1-5.4-1.6-5.4-5.4v-3.5c0-3.8,1.6-5.3,5.4-5.4h4.1c1.9,0,3.4,0.3,4.1,0.9l-1,2.3c-0.6-0.4-1.8-0.7-3.1-0.8h-3.1
			c-2.2,0-3.2,1.1-3.2,3.2v2.9c0,2.2,1,3.2,3.2,3.3h3.2V-27.3z"/>
		<path id="Shape_12_" class="st1" d="M157.6-27.3c1.3-0.1,2.5-0.3,3.1-0.8l1,2.3c-0.7,0.6-2.1,0.9-4,0.9h-4.2
			c-3.8-0.1-5.5-1.6-5.5-5.4v-3.5c0-3.8,1.6-5.3,5.5-5.4h4c1.9,0,3.4,0.3,4.1,0.9l-1,2.3c-0.6-0.4-1.8-0.7-3.1-0.8h-3.1
			c-2.2,0-3.2,1.1-3.2,3.2v2.9c0,2.2,1,3.2,3.2,3.3h3.2V-27.3z"/>
		<path id="Shape_13_" class="st1" d="M13.4-36.7c2.2,0,3.4,1.1,3.4,3.2v8.6h3.1v-8.9c0-3.8-2.4-5.4-6.2-5.4h-1.5
			c-1,0-4.2,0.3-6.2,1.5v12.8h3.1v-11c0.6-0.5,2.1-0.9,3.3-0.9L13.4-36.7L13.4-36.7z"/>
		<path id="Shape_14_" class="st1" d="M105.3-36.7c2.2,0,3.3,1.1,3.3,3.2v8.6h3.1v-8.9c0-3.8-2.4-5.4-6.2-5.4H104
			c-1.1,0-4.2,0.3-6.2,1.5v12.8h3.1v-11c0.6-0.5,2.1-0.9,3.4-0.9L105.3-36.7L105.3-36.7z"/>
		<path id="Shape_15_" class="st1" d="M121.7-36.7c2.2,0,3.3,1.1,3.3,3.2v8.6h3.1v-8.9c0-3.8-2.4-5.4-6.2-5.4h-1.5
			c-1.1,0-4.2,0.3-6.2,1.5v12.8h3.1v-11c0.6-0.5,2.1-0.9,3.4-0.9L121.7-36.7L121.7-36.7z"/>
		<path id="Shape_16_" class="st1" d="M95.3-33.8c0-3.8-1.6-5.3-5.5-5.4h-4c-3.8,0.1-5.4,1.6-5.4,5.4v3.5c0,3.8,1.6,5.3,5.4,5.4h4
			c3.8-0.1,5.5-1.6,5.5-5.4V-33.8z M92.2-30.5c0,2.2-1,3.2-3.2,3.2h-2.3c-2.2-0.1-3.2-1-3.2-3.2v-3c0-2.2,1-3.2,3.2-3.2H89
			c2.2,0,3.2,1,3.2,3.2V-30.5z"/>
		<path id="Shape_17_" class="st1" d="M-3-39.1v8.2c0,3.8,0.9,6.1,5.6,6.1c0.5,0,1.1,0,1.5-0.1v-2.4c-0.3,0-0.6,0-0.9,0
			c-2.5,0-3-0.8-3-3.1v-8.7H-3z"/>
	</g>
</g>
</svg>
